<svg width="135" height="29" viewBox="0 0 135 29" fill="none" xmlns="http://www.w3.org/2000/svg">
<path fill-rule="evenodd" clip-rule="evenodd" d="M15.9855 28.5231H7.55533V7.42527H0V0.996735H23.5408V7.42527H15.9855V28.5231ZM25.9221 20.1871H33.6763C33.9944 21.8467 36.0025 22.8005 38.3884 22.8005C40.9135 22.8005 42.4643 21.8086 42.4643 20.4542C42.4643 19.157 41.3509 18.6038 38.1299 18.0506L35.247 17.5547C29.5407 16.5818 26.4192 13.8158 26.4192 9.54285C26.4192 4.01088 31.3898 0.52002 38.2095 0.52002C45.8841 0.52002 50.1787 3.93458 50.2185 9.37117H42.4643C42.4047 7.69251 40.6153 6.71964 38.3089 6.71964C35.9628 6.71964 34.7698 7.71158 34.7698 8.9515C34.7698 10.1914 36.0025 10.7828 38.8656 11.2787L41.7486 11.7747C47.9121 12.843 50.8149 15.2656 50.8149 19.7293C50.8149 25.3948 46.2022 29.0001 38.289 29.0001C30.853 29.0001 25.942 25.8145 25.9221 20.1871ZM74.4903 22.0945V28.5231H54.25V0.996735H74.4903V7.42527H62.6802V11.8699H73.7547V17.669H62.6802V22.0945H74.4903ZM87.1509 28.5231H78.7207V0.996735H87.1509V12.6711H87.3099L96.1775 0.996735H105.025L95.581 13.2243L105.463 28.5231H95.6606L89.3976 18.4129L87.1509 21.3124V28.5231ZM134.705 28.5231H126.275V17.8788H116.175V28.5231H107.745V0.996735H116.175V11.4503H126.275V0.996735H134.705V28.5231Z" fill="#333333"/>
</svg>
